# This file uses centimeters as units for non-parametric coordinates.

mtllib WallPuzzle2.mtl
g default
v -0.754055 -0.616667 0.000000
v 0.754055 -0.616667 0.000000
v -0.754055 0.616667 0.000000
v 0.754055 0.616667 0.000000
v 0.000000 -1.794309 0.000000
v 0.000000 1.794309 0.000000
v -0.754055 0.000000 0.000000
v 0.000000 0.000000 0.000000
v 0.754055 0.000000 0.000000
v -0.754055 -0.616667 1.114608
v 0.000000 -1.794309 1.114608
v -0.754055 0.000000 1.114608
v 0.754055 -0.616667 1.114608
v 0.754055 0.000000 1.114608
v -0.754055 0.616667 1.114608
v 0.000000 1.794309 1.114608
v 0.754055 0.616667 1.114608
v -1.318573 -0.000000 -0.216746
v -1.318572 0.778339 -0.216746
v -0.000000 2.703533 -0.216746
v 0.000000 -0.000000 -0.216746
v 1.318573 0.778339 -0.216746
v 1.318572 0.000000 -0.216746
v -1.318572 -0.778339 -0.216746
v 0.000000 -2.703533 -0.216746
v 1.318572 -0.778339 -0.216746
v 0.000000 -2.703533 1.114608
v -1.318572 -0.778339 1.114608
v -1.318572 0.000000 1.114608
v 1.318572 0.000000 1.114608
v 1.318572 -0.778339 1.114608
v -1.318572 0.778339 1.114608
v 0.000000 2.703533 1.114608
v 1.318572 0.778339 1.114608
vt 0.000000 0.000000
vt 1.000000 0.000000
vt 0.000000 1.000000
vt 1.000000 1.000000
vt 0.500000 0.000000
vt 0.500000 1.000000
vt 0.000000 0.500000
vt 0.500000 0.500000
vt 1.000000 0.500000
vt 0.000000 0.000000
vt 1.000000 0.000000
vt 1.000000 1.000000
vt 0.000000 1.000000
vt 0.000000 0.000000
vt 1.000000 0.000000
vt 1.000000 1.000000
vt 0.000000 1.000000
vt 0.000000 0.000000
vt 1.000000 0.000000
vt 1.000000 1.000000
vt 0.000000 1.000000
vt 0.000000 0.000000
vt 1.000000 0.000000
vt 1.000000 1.000000
vt 0.000000 1.000000
vt 0.000000 0.000000
vt 1.000000 0.000000
vt 1.000000 1.000000
vt 0.000000 1.000000
vt 0.000000 0.000000
vt 1.000000 0.000000
vt 1.000000 1.000000
vt 0.000000 1.000000
vt 0.000000 0.000000
vt 1.000000 0.000000
vt 1.000000 1.000000
vt 0.000000 1.000000
vt 0.000000 0.000000
vt 1.000000 0.000000
vt 1.000000 1.000000
vt 0.000000 1.000000
vt 0.000000 0.500000
vt 0.000000 1.000000
vt 0.500000 1.000000
vt 0.500000 0.500000
vt 1.000000 1.000000
vt 1.000000 0.500000
vt 0.000000 0.000000
vt 0.500000 0.000000
vt 1.000000 0.000000
vt 0.000000 0.000000
vt 0.000000 1.000000
vt 1.000000 1.000000
vt 1.000000 0.000000
vt 0.000000 0.000000
vt 0.000000 1.000000
vt 1.000000 1.000000
vt 1.000000 0.000000
vt 0.000000 0.000000
vt 0.000000 1.000000
vt 1.000000 1.000000
vt 1.000000 0.000000
vt 0.000000 0.000000
vt 0.000000 1.000000
vt 1.000000 1.000000
vt 1.000000 0.000000
vt 0.000000 0.000000
vt 0.000000 1.000000
vt 1.000000 1.000000
vt 1.000000 0.000000
vt 0.000000 0.000000
vt 0.000000 1.000000
vt 1.000000 1.000000
vt 1.000000 0.000000
vt 0.000000 0.000000
vt 0.000000 1.000000
vt 1.000000 1.000000
vt 1.000000 0.000000
vt 0.000000 0.000000
vt 0.000000 1.000000
vt 1.000000 1.000000
vt 1.000000 0.000000
vt 0.000000 1.000000
vt 1.000000 1.000000
vt 0.000000 1.000000
vt 1.000000 1.000000
vt 0.000000 1.000000
vt 1.000000 1.000000
vt 0.000000 1.000000
vt 1.000000 1.000000
vt 0.000000 1.000000
vt 1.000000 1.000000
vt 0.000000 1.000000
vt 1.000000 1.000000
vt 0.000000 1.000000
vt 1.000000 1.000000
vt 0.000000 1.000000
vt 1.000000 1.000000
vn 0.000000 0.000000 -1.000000
vn 0.000000 0.000000 -1.000000
vn 0.000000 0.000000 -1.000000
vn 0.000000 0.000000 -1.000000
vn -0.000000 0.000000 -1.000000
vn -0.000000 0.000000 -1.000000
vn -0.000000 0.000000 -1.000000
vn -0.000000 0.000000 -1.000000
vn 0.000000 0.000000 -1.000000
vn 0.000000 0.000000 -1.000000
vn 0.000000 0.000000 -1.000000
vn 0.000000 0.000000 -1.000000
vn -0.825041 -0.565073 -0.000000
vn -0.825041 -0.565073 -0.000000
vn -0.825041 -0.565073 -0.000000
vn -0.825041 -0.565073 -0.000000
vn -1.000000 -0.000000 0.000000
vn -1.000000 -0.000000 0.000000
vn -1.000000 0.000000 0.000000
vn -1.000000 -0.000000 0.000000
vn 1.000000 -0.000000 -0.000000
vn 1.000000 -0.000000 -0.000000
vn 1.000000 0.000000 -0.000000
vn 1.000000 0.000000 -0.000000
vn -0.825041 0.565073 -0.000000
vn -0.825041 0.565073 -0.000000
vn -0.825041 0.565073 -0.000000
vn -0.825041 0.565073 -0.000000
vn 0.825041 -0.565073 0.000000
vn 0.825041 -0.565073 0.000000
vn 0.825041 -0.565073 0.000000
vn 0.825041 -0.565073 0.000000
vn 0.825041 0.565074 0.000000
vn 0.825041 0.565074 0.000000
vn 0.825041 0.565074 0.000000
vn 0.825041 0.565074 0.000000
vn -1.000000 0.000000 0.000000
vn -1.000000 0.000000 0.000000
vn 1.000000 -0.000000 -0.000000
vn 1.000000 -0.000000 -0.000000
vn 0.000000 0.000000 1.000000
vn 0.000000 0.000000 1.000000
vn 0.000000 0.000000 1.000000
vn 0.000000 0.000000 1.000000
vn 0.000000 0.000000 1.000000
vn 0.000000 0.000000 1.000000
vn 0.000000 0.000000 1.000000
vn 0.000000 0.000000 1.000000
vn 0.000000 0.000000 1.000000
vn 0.000000 0.000000 1.000000
vn 0.000000 0.000000 1.000000
vn 0.000000 0.000000 1.000000
vn 0.842153 0.539238 0.000000
vn 0.842153 0.539238 0.000000
vn 0.842153 0.539238 0.000000
vn 0.842153 0.539238 0.000000
vn 1.000000 0.000000 0.000000
vn 1.000000 0.000000 0.000000
vn 1.000000 0.000000 0.000000
vn 1.000000 0.000000 0.000000
vn -1.000000 0.000000 0.000000
vn -1.000000 0.000000 0.000000
vn -1.000000 0.000000 0.000000
vn -1.000000 0.000000 0.000000
vn 0.842153 -0.539238 0.000000
vn 0.842153 -0.539238 0.000000
vn 0.842153 -0.539238 0.000000
vn 0.842153 -0.539238 0.000000
vn -0.842153 0.539238 0.000000
vn -0.842153 0.539238 0.000000
vn -0.842153 0.539238 0.000000
vn -0.842153 0.539238 0.000000
vn -0.842153 -0.539238 0.000000
vn -0.842153 -0.539238 0.000000
vn -0.842153 -0.539238 0.000000
vn -0.842153 -0.539238 0.000000
vn 1.000000 0.000000 0.000000
vn 1.000000 0.000000 0.000000
vn -1.000000 0.000000 0.000000
vn -1.000000 0.000000 0.000000
vn -0.000000 0.000000 1.000000
vn -0.000000 0.000000 1.000000
vn -0.000000 0.000000 1.000000
vn -0.000000 0.000000 1.000000
vn 0.000000 0.000000 1.000000
vn 0.000000 0.000000 1.000000
vn 0.000000 0.000000 1.000000
vn 0.000000 0.000000 1.000000
vn 0.000000 0.000000 1.000000
vn 0.000000 0.000000 1.000000
vn 0.000000 0.000000 1.000000
vn 0.000000 0.000000 1.000000
vn -0.000000 0.000000 1.000000
vn -0.000000 0.000000 1.000000
vn -0.000000 0.000000 1.000000
vn -0.000000 0.000000 1.000000
vn 0.000000 0.000000 1.000000
vn 0.000000 0.000000 1.000000
vn 0.000000 0.000000 1.000000
vn 0.000000 0.000000 1.000000
vn 0.000000 0.000000 1.000000
vn 0.000000 0.000000 1.000000
vn 0.000000 0.000000 1.000000
vn 0.000000 0.000000 1.000000
vn 0.000000 0.000000 1.000000
vn 0.000000 0.000000 1.000000
vn 0.000000 0.000000 1.000000
vn 0.000000 0.000000 1.000000
vn 0.000000 0.000000 1.000000
vn 0.000000 0.000000 1.000000
vn 0.000000 0.000000 1.000000
vn 0.000000 0.000000 1.000000
s 1
g WallPuzzle2
usemtl initialShadingGroup
f 18/7/1 19/3/2 20/6/3 21/8/4
s 2
f 20/6/5 22/4/6 23/9/7 21/8/8
s 1
f 24/1/9 18/7/1 21/8/4 25/5/10
s 2
f 23/9/7 26/2/11 25/5/12 21/8/8
s off
f 25/10/13 27/83/14 28/84/15 24/11/16
s 3
f 24/14/17 28/85/18 29/86/19 18/15/20
s 4
f 23/18/21 30/87/22 31/88/23 26/19/24
s off
f 19/22/25 32/89/26 33/90/27 20/23/28
f 26/26/29 31/91/30 27/92/31 25/27/32
f 20/30/33 33/93/34 34/94/35 22/31/36
s 3
f 18/34/20 29/95/19 32/96/37 19/35/38
s 4
f 22/38/39 34/97/40 30/98/22 23/39/21
s 5
f 7/42/41 8/45/42 6/44/43 3/43/44
s 6
f 6/44/45 8/45/46 9/47/47 4/46/48
s 5
f 1/48/49 5/49/50 8/45/42 7/42/41
s 6
f 9/47/47 8/45/46 5/49/51 2/50/52
s off
f 5/51/53 1/54/54 10/53/55 11/52/56
s 7
f 1/55/57 7/58/58 12/57/59 10/56/60
s 8
f 9/59/61 2/62/62 13/61/63 14/60/64
s off
f 3/63/65 6/66/66 16/65/67 15/64/68
f 2/67/69 5/70/70 11/69/71 13/68/72
f 6/71/73 4/74/74 17/73/75 16/72/76
s 7
f 7/75/58 3/78/77 15/77/78 12/76/59
s 8
f 4/79/79 9/82/61 14/81/64 17/80/80
s off
f 11/13/81 10/12/82 28/84/83 27/83/84
f 10/17/85 12/16/86 29/86/87 28/85/88
f 14/21/89 13/20/90 31/88/91 30/87/92
f 15/25/93 16/24/94 33/90/95 32/89/96
f 13/29/97 11/28/98 27/92/99 31/91/100
f 16/33/101 17/32/102 34/94/103 33/93/104
f 12/37/105 15/36/106 32/96/107 29/95/108
f 17/41/109 14/40/110 30/98/111 34/97/112
