# This file uses centimeters as units for non-parametric coordinates.

mtllib puzzlecube.mtl
g default
v -0.500000 -0.500000 0.500000
v 0.500000 -0.500000 0.500000
v -0.500000 0.500000 0.500000
v 0.500000 0.500000 0.500000
v -0.500000 0.500000 -0.500000
v 0.500000 0.500000 -0.500000
v -0.500000 -0.500000 -0.500000
v 0.500000 -0.500000 -0.500000
vt 0.273160 0.357259
vt 0.504835 0.357259
vt 0.504835 0.588934
vt 0.273160 0.588934
vt 0.736510 0.357259
vt 0.968185 0.357259
vt 0.968185 0.588934
vt 0.736510 0.588934
vt 0.273160 0.820609
vt 0.504835 0.820609
vt 0.504835 0.125584
vt 0.273160 0.125584
vt 0.041485 0.357259
vt 0.041485 0.588934
vn 0.000000 0.000000 1.000000
vn 0.000000 0.000000 1.000000
vn 0.000000 0.000000 1.000000
vn 0.000000 0.000000 1.000000
vn 0.000000 1.000000 0.000000
vn 0.000000 1.000000 0.000000
vn 0.000000 1.000000 0.000000
vn 0.000000 1.000000 0.000000
vn 0.000000 0.000000 -1.000000
vn 0.000000 0.000000 -1.000000
vn 0.000000 0.000000 -1.000000
vn 0.000000 0.000000 -1.000000
vn 0.000000 -1.000000 0.000000
vn 0.000000 -1.000000 0.000000
vn 0.000000 -1.000000 0.000000
vn 0.000000 -1.000000 0.000000
vn 1.000000 0.000000 0.000000
vn 1.000000 0.000000 0.000000
vn 1.000000 0.000000 0.000000
vn 1.000000 0.000000 0.000000
vn -1.000000 0.000000 0.000000
vn -1.000000 0.000000 0.000000
vn -1.000000 0.000000 0.000000
vn -1.000000 0.000000 0.000000
s off
g pCube1
usemtl initialShadingGroup
f 1/13/1 2/1/2 4/4/3 3/14/4
f 3/9/5 4/4/6 6/3/7 5/10/8
f 5/8/9 6/3/10 8/2/11 7/5/12
f 7/11/13 8/2/14 2/1/15 1/12/16
f 2/1/17 8/2/18 6/3/19 4/4/20
f 7/5/21 1/6/22 3/7/23 5/8/24
